<svg xmlns="http://www.w3.org/2000/svg" viewBox="0 0 10.2 20">
  <defs>
    <style>
      .cls-1 {
        fill: #fff;
      }
    </style>
  </defs>
  <g id="_002-facebook" data-name="002-facebook" transform="translate(-70.769)">
    <path id="Path_103" data-name="Path 103" class="cls-1" d="M77.444,20h-4.3V11.033H70.769V6.915H73.14V4.6c0-2.123,1.328-4.6,5.073-4.6a19.85,19.85,0,0,1,2.33.129l.4.052-.1,3.854-.438,0s-.985-.009-2.058-.009c-.8,0-.9.2-.9.981V6.915h3.525l-.2,4.118H77.445V20h0Zm-3.414-.89h2.524V10.143h3.37L80.035,7.8H76.553V5c0-.926.213-1.871,1.795-1.871.635,0,1.239,0,1.628.006L80.029.97C79.636.935,78.983.89,78.212.89c-3.084,0-4.183,1.917-4.183,3.712V7.8H71.658v2.339h2.371V19.11h0Z"/>
  </g>
</svg>
