<svg xmlns="http://www.w3.org/2000/svg" viewBox="0 0 76.002 78.456"><defs><style>.a{fill:#1d363b;}.b{fill:#dfc15e;}</style></defs><g transform="translate(-8.008 0)"><g transform="translate(8.008 0)"><g transform="translate(0 0)"><path class="a" d="M81.5,45.954H80.322V35.379a4.965,4.965,0,0,0-2.106-4.057v-1.44a3.792,3.792,0,0,0-3.788-3.788h-.877l3.354-4.922a3.625,3.625,0,0,0-.953-5.031L53.193.63a3.621,3.621,0,0,0-5.031.953L28.517,30.41H23.05l1.319-13.351a.4.4,0,0,1,.249-.332,8.5,8.5,0,0,0,4.146-3.369.393.393,0,0,1,.371-.174l8.574.847a1.118,1.118,0,1,0,.22-2.225l-8.574-.847a2.617,2.617,0,0,0-2.478,1.2,6.248,6.248,0,0,1-3.049,2.477,2.613,2.613,0,0,0-1.685,2.2L20.8,30.41H19.378L21.464,9.294a1.385,1.385,0,0,1,1.514-1.242L40.305,9.763a1.118,1.118,0,0,0,.22-2.225L23.2,5.826a3.625,3.625,0,0,0-3.959,3.247l-1.681,17.02H14.694a3.792,3.792,0,0,0-3.788,3.788v.982a4.974,4.974,0,0,0-2.9,4.515V73.488a4.974,4.974,0,0,0,4.969,4.969H75.354a4.974,4.974,0,0,0,4.969-4.969V62.912H81.5A2.516,2.516,0,0,0,84.01,60.4V48.468A2.516,2.516,0,0,0,81.5,45.954ZM74.429,28.33h0a1.554,1.554,0,0,1,1.552,1.552v.57a4.982,4.982,0,0,0-.627-.041H70.61l1.418-2.081ZM50.009,2.842a1.377,1.377,0,0,1,.887-.581,1.405,1.405,0,0,1,.261-.025,1.376,1.376,0,0,1,.777.241l22.76,15.51a1.387,1.387,0,0,1,.365,1.924L67.9,30.41H66.188L69.7,25.263a2.613,2.613,0,0,0,.122-2.772,6.248,6.248,0,0,1-.749-3.856,2.614,2.614,0,0,0-1.131-2.509l-11.8-8.041a2.615,2.615,0,0,0-2.749-.135,6.249,6.249,0,0,1-3.863.713,2.647,2.647,0,0,0-2.536,1.127L32.94,30.41H31.223ZM50.5,21.827a9.225,9.225,0,0,0-9.19,8.583H35.645L48.838,11.05h0a.4.4,0,0,1,.327-.176.381.381,0,0,1,.051,0,8.5,8.5,0,0,0,5.254-.97.394.394,0,0,1,.409.025l11.8,8.041a.4.4,0,0,1,.173.372,8.5,8.5,0,0,0,1.019,5.244.4.4,0,0,1-.022.415L63.483,30.41h-3.79A9.225,9.225,0,0,0,50.5,21.827Zm6.949,8.584h-13.9a6.977,6.977,0,0,1,13.9,0Zm-44.308-.529a1.554,1.554,0,0,1,1.552-1.552h2.642l-.205,2.081H13.142Zm-2.9,5.5a2.736,2.736,0,0,1,2.733-2.733H75.354a2.736,2.736,0,0,1,2.733,2.733v3.1H10.244ZM78.087,73.488a2.736,2.736,0,0,1-2.733,2.733H12.977a2.736,2.736,0,0,1-2.733-2.733v-3.1h6.029a1.118,1.118,0,0,0,0-2.236H10.244V40.717H78.087v5.238H67.457a8.489,8.489,0,0,0-7.627,4.778l-.015.028c-.012.024-.022.049-.033.073a8.428,8.428,0,0,0-.422,1.081v0a8.481,8.481,0,0,0,8.1,10.994H78.086V68.15H23.431a1.118,1.118,0,0,0,0,2.236H78.087ZM81.774,60.4a.278.278,0,0,1-.278.277H67.457a6.249,6.249,0,0,1-5.489-3.27q-.072-.133-.138-.269-.132-.273-.237-.56a6.25,6.25,0,0,1,0-4.289q.105-.287.237-.56.066-.136.138-.269a6.249,6.249,0,0,1,5.489-3.27H81.5a.278.278,0,0,1,.278.277V60.4Z" transform="translate(-8.008 0)"/></g></g><g transform="translate(63.184 49.898)"><path class="b" d="M372.617,325.627a4.536,4.536,0,1,0,4.536,4.536A4.541,4.541,0,0,0,372.617,325.627Zm0,6.836a2.3,2.3,0,1,1,2.3-2.3A2.3,2.3,0,0,1,372.617,332.463Z" transform="translate(-368.081 -325.627)"/></g></g></svg>