<svg xmlns="http://www.w3.org/2000/svg" viewBox="0 0 25.85 20.286">
  <defs>
    <style>
      .cls-1 {
        fill: #fff;
      }
    </style>
  </defs>
  <g id="_001-twitter" data-name="001-twitter" transform="translate(0 -36.709)">
    <path id="Path_102" data-name="Path 102" class="cls-1" d="M8.744,56.995a13.991,13.991,0,0,1-7.182-2.007L0,54.053l1.821.031c.059,0,.154.008.3.008A10.947,10.947,0,0,0,7.288,52.7,5.578,5.578,0,0,1,3.6,49.159l-.287-.853.781.2a5.539,5.539,0,0,1-2.161-4.089l-.043-.789.724.316a4.307,4.307,0,0,0,.4.153,5.518,5.518,0,0,1-.353-6.027l.357-.651.454.588A12.282,12.282,0,0,0,12.4,42.777c-.021-.219-.037-.42-.037-.483a5.263,5.263,0,0,1,5.314-5.314,5.324,5.324,0,0,1,3.731,1.531,10.3,10.3,0,0,0,2.609-1.094l1.15-.708-.434,1.279a5.3,5.3,0,0,1-.933,1.67c.222-.073.44-.156.665-.254l1.382-.675-.581,1.247A5.331,5.331,0,0,1,23,42.4a14.15,14.15,0,0,1-3.706,10.007A13.8,13.8,0,0,1,8.833,56.994ZM3.625,54.954A12.923,12.923,0,0,0,8.744,56.02h.083a12.853,12.853,0,0,0,9.742-4.265A13.053,13.053,0,0,0,22,42.159l-.033-.343.312-.145a4.352,4.352,0,0,0,1.309-.939,10.854,10.854,0,0,1-1.371.245l-.374.045-.291-.738.339-.261a4.372,4.372,0,0,0,1.223-1.065,8.758,8.758,0,0,1-1.779.563l-.267.05-.183-.2a4.348,4.348,0,0,0-3.207-1.417,4.3,4.3,0,0,0-4.34,4.34c0,.129.064.716.087.867l.221.629-.7-.015a13.244,13.244,0,0,1-9.738-4.56A4.689,4.689,0,0,0,4.65,44.428l1.142.9L4.341,45.3a5.518,5.518,0,0,1-1.33-.185A4.568,4.568,0,0,0,6.5,48.573l1.921.413-1.892.532a4.132,4.132,0,0,1-1.112.139c-.191,0-.374-.01-.542-.026a4.594,4.594,0,0,0,3.745,2.316l1.369.067-1.1.812A11.638,11.638,0,0,1,3.625,54.954Z"/>
  </g>
</svg>
