<svg xmlns="http://www.w3.org/2000/svg" viewBox="0 0 57.333 78.456"><defs><style>.a{fill:#1d363b;}.b{fill:#dfc15e;}</style></defs><g transform="translate(0)"><path class="a" d="M85.978,6.035H75.417V4.526a1.509,1.509,0,0,0-1.509-1.509H64.854a7.54,7.54,0,0,0-12.066,0H43.733a1.509,1.509,0,0,0-1.509,1.509V6.035H31.663a1.509,1.509,0,0,0-1.509,1.509v69.4a1.509,1.509,0,0,0,1.509,1.509H85.978a1.509,1.509,0,0,0,1.509-1.509V7.544A1.509,1.509,0,0,0,85.978,6.035Zm-40.737,0h8.353A1.509,1.509,0,0,0,54.9,5.282a4.525,4.525,0,0,1,7.839,0,1.509,1.509,0,0,0,1.306.753H72.4V12.07H45.242ZM84.47,69.4H76.926a1.509,1.509,0,1,0,0,3.018H84.47v3.017h-51.3V9.053h9.053v4.526a1.509,1.509,0,0,0,1.509,1.509H73.908a1.509,1.509,0,0,0,1.509-1.509V9.053H84.47V69.4Z" transform="translate(-30.154)"/></g><g transform="translate(6.035 19.614)"><path class="a" d="M61.918,56.34a1.509,1.509,0,0,0-2.123.214L53.6,64.138,50.086,59.6A1.509,1.509,0,1,0,47.7,61.451l4.677,6.035a1.509,1.509,0,0,0,1.173.584h.019a1.509,1.509,0,0,0,1.169-.554l7.393-9.053A1.509,1.509,0,0,0,61.918,56.34Z" transform="translate(-47.384 -56)"/></g><g transform="translate(24.14 21.123)"><path class="b" d="M124.726,60.308h-24.14a1.509,1.509,0,1,0,0,3.017h24.14a1.509,1.509,0,0,0,0-3.017Z" transform="translate(-99.077 -60.308)"/></g><g transform="translate(24.14 27.158)"><path class="b" d="M109.639,77.539h-9.053a1.509,1.509,0,1,0,0,3.017h9.053a1.509,1.509,0,1,0,0-3.017Z" transform="translate(-99.077 -77.539)"/></g><g transform="translate(6.035 37.719)"><path class="a" d="M61.918,108.033a1.509,1.509,0,0,0-2.123.214L53.6,115.831l-3.516-4.536a1.509,1.509,0,0,0-2.385,1.848l4.677,6.035a1.508,1.508,0,0,0,1.173.584h.019a1.509,1.509,0,0,0,1.169-.554l7.393-9.053A1.509,1.509,0,0,0,61.918,108.033Z" transform="translate(-47.384 -107.693)"/></g><g transform="translate(24.14 39.228)"><path class="b" d="M124.726,112h-24.14a1.509,1.509,0,1,0,0,3.018h24.14a1.509,1.509,0,0,0,0-3.018Z" transform="translate(-99.077 -112)"/></g><g transform="translate(24.14 45.263)"><path class="b" d="M109.639,129.231h-9.053a1.509,1.509,0,1,0,0,3.018h9.053a1.509,1.509,0,1,0,0-3.018Z" transform="translate(-99.077 -129.231)"/></g><g transform="translate(6.035 55.825)"><path class="a" d="M61.918,159.725a1.509,1.509,0,0,0-2.123.214L53.6,167.523l-3.516-4.536a1.509,1.509,0,0,0-2.385,1.848l4.677,6.035a1.509,1.509,0,0,0,1.173.584h.019a1.509,1.509,0,0,0,1.169-.554l7.393-9.053A1.509,1.509,0,0,0,61.918,159.725Z" transform="translate(-47.384 -159.385)"/></g><g transform="translate(24.14 57.333)"><path class="b" d="M124.726,163.693h-24.14a1.509,1.509,0,1,0,0,3.017h24.14a1.509,1.509,0,1,0,0-3.017Z" transform="translate(-99.077 -163.693)"/></g><g transform="translate(24.14 63.368)"><path class="b" d="M109.639,180.923h-9.053a1.509,1.509,0,1,0,0,3.017h9.053a1.509,1.509,0,1,0,0-3.017Z" transform="translate(-99.077 -180.923)"/></g><g transform="translate(40.737 69.403)"><path class="a" d="M149.037,198.6a1.507,1.507,0,1,0,.442,1.067A1.519,1.519,0,0,0,149.037,198.6Z" transform="translate(-146.462 -198.154)"/></g></svg>