<?xml version="1.0" encoding="UTF-8"?><!DOCTYPE svg PUBLIC "-//W3C//DTD SVG 1.1//EN" "http://www.w3.org/Graphics/SVG/1.1/DTD/svg11.dtd"><svg xmlns="http://www.w3.org/2000/svg"><defs>
        <style>
            .a{fill:#1d363b}
        </style>
    
        <style>
            .cls-1{fill:#fff}
        </style>
    
        <style>
            .a{fill:#ffa861}
        </style>
    
        <style>
            .cls-1{fill:#fff}
        </style>
    </defs><symbol id="icon-cart" viewBox="0 0 14.221 13.385">
    
    <path class="a" d="M14.139 2.552a.456.456 0 0 0-.355-.195l-8.822-.38a.456.456 0 0 0-.039.912l8.224.355-1.617 5.045h-7.2L3.03 1.21a.456.456 0 0 0-.282-.342L.623.032a.456.456 0 0 0-.334.849l1.893.744 1.323 7.2a.456.456 0 0 0 .449.374h.219l-.5 1.392a.38.38 0 0 0 .358.509h.352a1.369 1.369 0 1 0 2.035 0H9.4a1.369 1.369 0 1 0 2.035 0h.427a.38.38 0 1 0 0-.76h-7.29l.411-1.141h6.881a.456.456 0 0 0 .434-.317l1.902-5.93a.455.455 0 0 0-.061-.4zM5.4 12.624a.608.608 0 1 1 .608-.608.609.609 0 0 1-.608.608zm5.019 0a.608.608 0 1 1 .608-.608.609.609 0 0 1-.608.608z"/>
</symbol><symbol id="icon-facebook" viewBox="0 0 10.2 20">
    
    <g id="_002-facebook" data-name="002-facebook" transform="translate(-70.769)">
        <path id="Path_103" data-name="Path 103" class="cls-1" d="M77.444 20h-4.3v-8.967h-2.375V6.915h2.371V4.6c0-2.123 1.328-4.6 5.073-4.6a19.85 19.85 0 0 1 2.33.129l.4.052-.1 3.854h-.438s-.985-.009-2.058-.009c-.8 0-.9.2-.9.981v1.908h3.525l-.2 4.118h-3.327V20zm-3.414-.89h2.524v-8.967h3.37l.111-2.343h-3.482V5c0-.926.213-1.871 1.795-1.871.635 0 1.239 0 1.628.006L80.029.97a20.868 20.868 0 0 0-1.817-.08c-3.084 0-4.183 1.917-4.183 3.712V7.8h-2.371v2.339h2.371v8.971z"/>
    </g>
</symbol><symbol id="icon-logo" viewBox="4902 6536 74.625 84.699">
    
    <path class="a" d="M4941.669 6619.669c-2.645-1.14-5.152-3.078-5.244-2.964a8.018 8.018 0 0 1-6.839 3.625c-6.839 0-27.586.023-27.586 0 0-2.713 23.026-5.084 27.586-8.481s6.839-9.963 6.839-9.963c.433-16.574 0-53.849 0-53.849V6536s3.557 3.055 3.557 6.11a4.987 4.987 0 0 1-.342 1.733l5.289-5.289s.365 4.674-1.8 6.839c-.091.091-.205.182-.3.274a7.875 7.875 0 0 1 3.192.935c2.485 1.482 3.6 4.628 4.765 5.358s2.736-.228 3.876.912.707 3.192-1.71 4.1-7.774.205-10.6.752a22.992 22.992 0 0 0 1.6 7.683c1.733 3.6 5.791 9.188 10.533 14.568l5.266-7.455h-.023l4.012-5.677s.821 2.508-.205 3.944a3.422 3.422 0 0 1-1.208.98l4.602-1.367a6.38 6.38 0 0 1-2.622 2.873c.091.046.16.068.251.114 1.619.912 2.075 3.169 2.85 3.648.752.456 1.55.114 2.28.456.912.41.524 2.143-.524 2.371-.912.182-7.227.182-8.367.844s-1.824 2.257-2.189 3.693a21.531 21.531 0 0 1 6.748 16.141c0 9.119-8.344 14.135-8.344 14.135 5.654-.114 11.422-.205 14.728-.205 6.383 0 5.266 5.517 3.557 6.155s-15.845-3.237-24.508-.958c-1.734.433-5.655 1.484-9.12.002z"/>
</symbol><symbol id="icon-plus" viewBox="0 0 24 24">
    <path d="M19 11h-6V5c0-.6-.4-1-1-1s-1 .4-1 1v6H5c-.6 0-1 .4-1 1s.4 1 1 1h6v6c0 .6.4 1 1 1s1-.4 1-1v-6h6c.6 0 1-.4 1-1s-.4-1-1-1z"/>
</symbol><symbol id="icon-twitter" viewBox="0 0 25.85 20.286">
    
    <g id="_001-twitter" data-name="001-twitter" transform="translate(0 -36.709)">
        <path id="Path_102" data-name="Path 102" class="cls-1" d="M8.744 56.995a13.991 13.991 0 0 1-7.182-2.007L0 54.053l1.821.031c.059 0 .154.008.3.008A10.947 10.947 0 0 0 7.288 52.7 5.578 5.578 0 0 1 3.6 49.159l-.287-.853.781.2a5.539 5.539 0 0 1-2.161-4.089l-.043-.789.724.316a4.307 4.307 0 0 0 .4.153 5.518 5.518 0 0 1-.353-6.027l.357-.651.454.588a12.282 12.282 0 0 0 8.928 4.77 8.157 8.157 0 0 1-.037-.483 5.263 5.263 0 0 1 5.314-5.314 5.324 5.324 0 0 1 3.731 1.531 10.3 10.3 0 0 0 2.609-1.094l1.15-.708-.434 1.279a5.3 5.3 0 0 1-.933 1.67c.222-.073.44-.156.665-.254l1.382-.675-.581 1.247A5.331 5.331 0 0 1 23 42.4a14.15 14.15 0 0 1-3.706 10.007 13.8 13.8 0 0 1-10.461 4.587zm-5.119-2.041a12.923 12.923 0 0 0 5.119 1.066h.083a12.853 12.853 0 0 0 9.742-4.265A13.053 13.053 0 0 0 22 42.159l-.033-.343.312-.145a4.352 4.352 0 0 0 1.309-.939 10.854 10.854 0 0 1-1.371.245l-.374.045-.291-.738.339-.261a4.372 4.372 0 0 0 1.223-1.065 8.758 8.758 0 0 1-1.779.563l-.267.05-.183-.2a4.348 4.348 0 0 0-3.207-1.417 4.3 4.3 0 0 0-4.34 4.34c0 .129.064.716.087.867l.221.629-.7-.015a13.244 13.244 0 0 1-9.738-4.56 4.689 4.689 0 0 0 1.442 5.213l1.142.9-1.451-.028a5.518 5.518 0 0 1-1.33-.185A4.568 4.568 0 0 0 6.5 48.573l1.921.413-1.892.532a4.132 4.132 0 0 1-1.112.139c-.191 0-.374-.01-.542-.026a4.594 4.594 0 0 0 3.745 2.316l1.369.067-1.1.812a11.638 11.638 0 0 1-5.264 2.128z"/>
    </g>
</symbol></svg>