<?xml version="1.0" encoding="UTF-8"?><!DOCTYPE svg PUBLIC "-//W3C//DTD SVG 1.1//EN" "http://www.w3.org/Graphics/SVG/1.1/DTD/svg11.dtd"><svg xmlns="http://www.w3.org/2000/svg"><defs>
        <style>
            .a{fill:#dfc15e}
        </style>
    
        <style>
            .a{fill:#1d363b}
        </style>
    
        <style>
            .a{fill:none;stroke:#232323}
        </style>
    
        <style>
            .a{fill:none;stroke:#232323}
        </style>
    
        <style>
            .a{fill:#dfc15e}
        </style>
    
        <style>
            .cls-1{fill:#fff}
        </style>
    
        <style>
            .a{fill:#fff}
        </style>
    
        <style>
            .a{fill:#dfc15e}
        </style>
    
        <style>
            .a{fill:#1d363b}
        </style>
    
        <style>
            .a{fill:#ffa861}
        </style>
    
        <style>
            .a{fill:#1d363b}
        </style>
    
        <style>
            .a{fill:#1d363b}
        </style>
    
        <style>
            .a{fill:#1d363b;stroke:#1d363b;stroke-linecap:round;stroke-linejoin:round;stroke-width:2px}
        </style>
    
        <style>
            .cls-1{fill:#fff}
        </style>
    </defs><symbol id="icon-award" viewBox="0 0 51.454 67.782">
    
    <path class="a" d="M51.333 61.076L40.015 40.708l.937-1.623 5.069-2.927a1.008 1.008 0 0 0 .5-.873v-5.852l2.926-5.069a1.008 1.008 0 0 0 0-1.008l-2.926-5.069v-5.853a1.008 1.008 0 0 0-.5-.873l-5.068-2.926-2.927-5.07a1.008 1.008 0 0 0-.873-.5H31.3L26.233.135a1.008 1.008 0 0 0-1.008 0l-5.071 2.927h-5.853a1.008 1.008 0 0 0-.873.5l-2.926 5.073-5.069 2.926a1.008 1.008 0 0 0-.5.873v5.853l-2.93 5.069a1.008 1.008 0 0 0 0 1.008l2.93 5.069v5.853a1.008 1.008 0 0 0 .5.873l5.069 2.927.937 1.623L.125 61.076a1.017 1.017 0 0 0 1.049 1.483l5.991-1.014 2.3 5.622a1.017 1.017 0 0 0 1.813.107l11.668-21 2.273 1.312a1.016 1.016 0 0 0 1.008 0l2.273-1.312 11.668 21a1.016 1.016 0 0 0 1.813-.107l2.3-5.622 5.991 1.014a1.017 1.017 0 0 0 1.061-1.483zm-40.794 3.387l-1.815-4.428a1.008 1.008 0 0 0-1.1-.611l-4.719.8 9.71-17.478.814 1.41a1.008 1.008 0 0 0 .873.5h5.853l1.05.606zm15.188-18.915l-4.8-2.771a1.008 1.008 0 0 0-.5-.135h-5.544l-2.771-4.8a1.008 1.008 0 0 0-.369-.369l-4.8-2.771v-5.539a1.008 1.008 0 0 0-.135-.5l-2.771-4.8 2.771-4.8a1.008 1.008 0 0 0 .135-.5v-5.548l4.8-2.771a1.008 1.008 0 0 0 .369-.369l2.771-4.8h5.541a1.008 1.008 0 0 0 .5-.135l4.8-2.771 4.8 2.771a1.008 1.008 0 0 0 .5.135h5.541l2.771 4.8a1.008 1.008 0 0 0 .369.369l4.8 2.771v5.541a1.008 1.008 0 0 0 .135.5l2.771 4.8-2.771 4.8a1.008 1.008 0 0 0-.135.5V34.7l-4.8 2.771a1.008 1.008 0 0 0-.369.369l-2.771 4.8h-5.532a1.008 1.008 0 0 0-.5.135zm18.1 13.875a1.008 1.008 0 0 0-1.1.611l-1.815 4.428-10.666-19.2 1.05-.606h5.857a1.008 1.008 0 0 0 .873-.5l.814-1.41 9.71 17.478z"/>
    <path class="a" d="M37.271 11.201a1.008 1.008 0 0 0-1.359 1.489 15.116 15.116 0 1 1-10.186-3.947 15 15 0 0 1 6.206 1.328 1.008 1.008 0 0 0 .828-1.837 17.133 17.133 0 1 0 10.1 15.624 17.173 17.173 0 0 0-5.589-12.657z"/>
</symbol><symbol id="icon-cart" viewBox="0 0 14.221 13.385">
    
    <path class="a" d="M14.139 2.552a.456.456 0 0 0-.355-.195l-8.822-.38a.456.456 0 0 0-.039.912l8.224.355-1.617 5.045h-7.2L3.03 1.21a.456.456 0 0 0-.282-.342L.623.032a.456.456 0 0 0-.334.849l1.893.744 1.323 7.2a.456.456 0 0 0 .449.374h.219l-.5 1.392a.38.38 0 0 0 .358.509h.352a1.369 1.369 0 1 0 2.035 0H9.4a1.369 1.369 0 1 0 2.035 0h.427a.38.38 0 1 0 0-.76h-7.29l.411-1.141h6.881a.456.456 0 0 0 .434-.317l1.902-5.93a.455.455 0 0 0-.061-.4zM5.4 12.624a.608.608 0 1 1 .608-.608.609.609 0 0 1-.608.608zm5.019 0a.608.608 0 1 1 .608-.608.609.609 0 0 1-.608.608z"/>
</symbol><symbol id="icon-chevron-left" viewBox="0 0 5.763 10.102">
    
    <path class="a" d="M.71 5.054l-.359-.357.359.357 4.7-4.7-4.7 4.7 4.7 4.7-4.7-4.7-.359.359z"/>
</symbol><symbol id="icon-chevron-right" viewBox="0 0 5.763 10.102">
    
    <path class="a" d="M5.053 5.048l.359.357-.359-.357-4.7 4.7 4.7-4.7-4.7-4.7 4.7 4.7.359-.359z"/>
</symbol><symbol id="icon-dollar" viewBox="0 0 48.174 48.174">
    
    <path class="a" d="M45.562 13.166a24.309 24.309 0 0 0-6.981-8.32 1.079 1.079 0 0 0-1.3 1.722 21.831 21.831 0 1 1-4.286-2.527 1.079 1.079 0 1 0 .877-1.971 24.076 24.076 0 1 0 11.689 11.1z"/>
    <path class="a" d="M29.292 22.298a2.117 2.117 0 0 0 2.111-2.115v-1.3a6.027 6.027 0 0 0-5.205-5.964v-1.41a2.115 2.115 0 1 0-4.229 0v1.518a6.669 6.669 0 0 0 1.464 13.176h1.3a2.44 2.44 0 0 1 0 4.88h-1.952a1.791 1.791 0 0 1-1.789-1.789 2.115 2.115 0 1 0-4.229 0 6.027 6.027 0 0 0 5.205 5.964v1.41a2.115 2.115 0 0 0 4.229 0V35.15a6.669 6.669 0 0 0-1.464-13.176h-1.3a2.44 2.44 0 0 1 0-4.88h1.952a1.791 1.791 0 0 1 1.789 1.789v1.3a2.117 2.117 0 0 0 2.118 2.115zm-3.9-6.832H23.44a4.067 4.067 0 0 0 0 8.133h1.3a5.042 5.042 0 0 1 .563 10.051.813.813 0 0 0-.723.808v2.206a.488.488 0 0 1-.976 0v-2.166a.813.813 0 0 0-.813-.813 4.4 4.4 0 0 1-4.392-4.392.488.488 0 1 1 .976 0 3.42 3.42 0 0 0 3.416 3.416h1.952a4.067 4.067 0 1 0 0-8.133h-1.3a5.042 5.042 0 0 1-.561-10.053.813.813 0 0 0 .724-.808v-2.207a.488.488 0 1 1 .976 0v2.169a.813.813 0 0 0 .813.813 4.4 4.4 0 0 1 4.392 4.392v1.3a.488.488 0 1 1-.976 0v-1.3a3.42 3.42 0 0 0-3.423-3.416z"/>
</symbol><symbol id="icon-facebook" viewBox="0 0 10.2 20">
    
    <g id="_002-facebook" data-name="002-facebook" transform="translate(-70.769)">
        <path id="Path_103" data-name="Path 103" class="cls-1" d="M77.444 20h-4.3v-8.967h-2.375V6.915h2.371V4.6c0-2.123 1.328-4.6 5.073-4.6a19.85 19.85 0 0 1 2.33.129l.4.052-.1 3.854h-.438s-.985-.009-2.058-.009c-.8 0-.9.2-.9.981v1.908h3.525l-.2 4.118h-3.327V20zm-3.414-.89h2.524v-8.967h3.37l.111-2.343h-3.482V5c0-.926.213-1.871 1.795-1.871.635 0 1.239 0 1.628.006L80.029.97a20.868 20.868 0 0 0-1.817-.08c-3.084 0-4.183 1.917-4.183 3.712V7.8h-2.371v2.339h2.371v8.971z"/>
    </g>
</symbol><symbol id="icon-filters" viewBox="0 0 11.189 10.36">
    
    <path class="a" d="M.207 1.45h.622v.829a.207.207 0 0 0 .207.207h2.486a.207.207 0 0 0 .207-.207V1.45h7.252a.207.207 0 1 0 0-.414H3.73V.207A.207.207 0 0 0 3.522 0H1.036a.207.207 0 0 0-.207.207v.829H.207a.207.207 0 0 0 0 .414zM1.243.414h2.072v1.658H1.243z"/>
    <path class="a" d="M10.982 4.973H7.045v-.829a.207.207 0 0 0-.207-.207H4.351a.207.207 0 0 0-.207.207v.829H.207a.207.207 0 0 0 0 .414h3.937v.829a.207.207 0 0 0 .207.207h2.487a.207.207 0 0 0 .207-.207v-.829h3.937a.207.207 0 1 0 0-.414zM6.63 6.009H4.558V4.351H6.63z"/>
    <path class="a" d="M10.982 8.91h-.622v-.829a.207.207 0 0 0-.207-.207H7.667a.207.207 0 0 0-.207.207v.829H.207a.207.207 0 1 0 0 .414h7.252v.829a.207.207 0 0 0 .207.207h2.486a.207.207 0 0 0 .207-.207v-.829h.622a.207.207 0 1 0 0-.414zM9.946 9.946H7.874V8.288h2.072z"/>
</symbol><symbol id="icon-handshake" viewBox="0 0 59.444 59.552">
    
    <path class="a" d="M40.782 33.576l-8.085-4.968a.892.892 0 0 0-.326-.12l-2.53-.445a.872.872 0 0 0-.3 1.718l2.389.422 7.944 4.881a.872.872 0 0 0 .913-1.487z"/>
    <path class="a" d="M59.208 33.856a.873.873 0 0 0-1.233-.042l-3.542 3.306-16.2-15.991 20.934-19.62A.872.872 0 0 0 57.974.236l-21.6 20.241a.881.881 0 0 0-.016 1.258l1.434 1.414-.458.4-9.582-.825a.874.874 0 0 0-.436.075l-7.592 3.458a.724.724 0 0 0-.067-.015l-4.367-.771.353-.9a.872.872 0 0 0-.489-1.128L1.196 17.86a.872.872 0 0 0-.648 1.62l13.155 5.262-7.752 19.812-4.788-1.7a.872.872 0 1 0-.582 1.645l5.584 1.978a.88.88 0 0 0 1.1-.5l1.3-3.311 3.395 1.9-.374.607a3.663 3.663 0 0 0 4.247 5.409 3.661 3.661 0 0 0 4.752 2.932 3.662 3.662 0 0 0 4.748 2.933 3.662 3.662 0 0 0 6.74 1.371l.6-.964.49.3a3.658 3.658 0 0 0 5.041-1.2 3.643 3.643 0 0 0 .534-2.138 3.619 3.619 0 0 0 .847.1 3.693 3.693 0 0 0 3.129-1.747 3.638 3.638 0 0 0 .536-2.138 3.619 3.619 0 0 0 .845.1 3.693 3.693 0 0 0 3.129-1.747 3.637 3.637 0 0 0 .536-2.139 3.663 3.663 0 0 0 2.77-6.684l-.6-.367 2.003-2.095 1.876 1.851a.881.881 0 0 0 1.208.016l4.149-3.878a.873.873 0 0 0 .042-1.232zm-42.875 14.25a1.92 1.92 0 0 1-3.267-2.016l4.887-7.92a1.929 1.929 0 0 1 2.609-.645 1.985 1.985 0 0 1 .625 2.714zm4.752 2.932a1.92 1.92 0 1 1-3.267-2.016l3.915-6.335a1.929 1.929 0 0 1 2.609-.645 1.985 1.985 0 0 1 .625 2.714zm4.752 2.932a1.92 1.92 0 0 1-2.642.626 1.937 1.937 0 0 1-.626-2.641l2.936-4.756a1.929 1.929 0 0 1 2.609-.645 1.985 1.985 0 0 1 .625 2.714zm6.674-.182l-1.919 3.111a1.92 1.92 0 0 1-3.267-2.016l1.955-3.168a1.929 1.929 0 0 1 2.609-.645 1.985 1.985 0 0 1 .625 2.718zM48.407 38.26l-4.324-2.661a.872.872 0 0 0-.913 1.487l6.443 3.963a1.92 1.92 0 1 1-2.01 3.271l-6.91-4.246a.872.872 0 1 0-.913 1.487l5.325 3.272a1.92 1.92 0 0 1-2.01 3.271l-4.826-2.965a.872.872 0 1 0-.913 1.487l3.24 1.991a1.92 1.92 0 1 1-2.01 3.271s-2.849-1.749-2.876-1.762a.872.872 0 0 0-.835 1.529l1.212.745a1.92 1.92 0 0 1-2.01 3.271l-.487-.3.41-.665a3.777 3.777 0 0 0 .446-2.872 3.607 3.607 0 0 0-3.766-2.755 3.782 3.782 0 0 0-.009-1.761 3.607 3.607 0 0 0-3.766-2.756 3.714 3.714 0 0 0-1.672-4.023 3.632 3.632 0 0 0-2.1-.5 3.653 3.653 0 0 0-6.659-2.79l-3.6 5.827-3.668-2.052 5.436-13.893 2.96.522a3.664 3.664 0 0 0 4.368 5.637l5.109-2.327a.872.872 0 1 0-.723-1.588l-5.109 2.324a1.92 1.92 0 0 1-1.591-3.494l8.177-3.72 9.726.838h.075a.873.873 0 0 0 .577-.218l.828-.731 11.653 11.5z"/>
</symbol><symbol id="icon-info" viewBox="0 0 18.64 18.64">
    
    <path class="a" d="M8.263 6.083a1.861 1.861 0 0 0 .1.187c.034.051.085.1.119.153a1.538 1.538 0 0 0 .17.153.574.574 0 0 0 .2.1.843.843 0 0 0 .221.068 1.048 1.048 0 0 0 .221.017.972.972 0 0 0 .221-.017.61.61 0 0 0 .187-.068h.017a1.271 1.271 0 0 0 .2-.119 1.1 1.1 0 0 0 .153-.136l.017-.017a.937.937 0 0 0 .119-.153.533.533 0 0 0 .085-.17c0-.017 0-.017.017-.034a1.1 1.1 0 0 0 .068-.221 1.449 1.449 0 0 0 0-.443 1.581 1.581 0 0 0-.068-.221.967.967 0 0 0-.2-.307l-.034-.034a1.489 1.489 0 0 0-.17-.136c-.068-.034-.119-.068-.187-.1a.96.96 0 0 0-.2-.068 1.048 1.048 0 0 0-.221-.017.972.972 0 0 0-.221.017.961.961 0 0 0-.2.068H8.86a1.858 1.858 0 0 0-.187.1 1.49 1.49 0 0 0-.17.136 1.1 1.1 0 0 0-.136.153 1.861 1.861 0 0 0-.1.187.96.96 0 0 0-.068.2 1.049 1.049 0 0 0-.017.221.972.972 0 0 0 .017.222 1.546 1.546 0 0 0 .064.279z"/>
    <path class="a" d="M10.632 12.319h-.392V8.145a.44.44 0 0 0-.443-.443H8.008a.44.44 0 0 0-.443.443v.92a.44.44 0 0 0 .443.443h.358v2.828h-.358a.44.44 0 0 0-.443.443v.92a.44.44 0 0 0 .443.443h2.624a.44.44 0 0 0 .443-.443v-.92a.455.455 0 0 0-.443-.46z"/>
    <path class="a" d="M9.32 0a9.32 9.32 0 1 0 9.32 9.32A9.322 9.322 0 0 0 9.32 0zm0 17.413a8.093 8.093 0 1 1 8.093-8.093 8.1 8.1 0 0 1-8.093 8.093z"/>
</symbol><symbol id="icon-logo" viewBox="4902 6536 74.625 84.699">
    
    <path class="a" d="M4941.669 6619.669c-2.645-1.14-5.152-3.078-5.244-2.964a8.018 8.018 0 0 1-6.839 3.625c-6.839 0-27.586.023-27.586 0 0-2.713 23.026-5.084 27.586-8.481s6.839-9.963 6.839-9.963c.433-16.574 0-53.849 0-53.849V6536s3.557 3.055 3.557 6.11a4.987 4.987 0 0 1-.342 1.733l5.289-5.289s.365 4.674-1.8 6.839c-.091.091-.205.182-.3.274a7.875 7.875 0 0 1 3.192.935c2.485 1.482 3.6 4.628 4.765 5.358s2.736-.228 3.876.912.707 3.192-1.71 4.1-7.774.205-10.6.752a22.992 22.992 0 0 0 1.6 7.683c1.733 3.6 5.791 9.188 10.533 14.568l5.266-7.455h-.023l4.012-5.677s.821 2.508-.205 3.944a3.422 3.422 0 0 1-1.208.98l4.602-1.367a6.38 6.38 0 0 1-2.622 2.873c.091.046.16.068.251.114 1.619.912 2.075 3.169 2.85 3.648.752.456 1.55.114 2.28.456.912.41.524 2.143-.524 2.371-.912.182-7.227.182-8.367.844s-1.824 2.257-2.189 3.693a21.531 21.531 0 0 1 6.748 16.141c0 9.119-8.344 14.135-8.344 14.135 5.654-.114 11.422-.205 14.728-.205 6.383 0 5.266 5.517 3.557 6.155s-15.845-3.237-24.508-.958c-1.734.433-5.655 1.484-9.12.002z"/>
</symbol><symbol id="icon-mail" viewBox="0 0 19.817 13.872">
    
    <path class="a" d="M1.568.821l7.141 5.652a1.816 1.816 0 0 0 1.2.348 1.811 1.811 0 0 0 1.2-.349L18.248.821c.572-.45.442-.819-.283-.819H1.853C1.126 0 .997.369 1.568.821z"/>
    <path class="a" d="M18.764 2.312l-7.8 5.922a1.894 1.894 0 0 1-2.109 0l-7.8-5.922C.474 1.874 0 2.109 0 2.835v9.717a1.325 1.325 0 0 0 1.321 1.322H18.5a1.325 1.325 0 0 0 1.321-1.321V2.835c-.004-.726-.478-.961-1.057-.523z"/>
</symbol><symbol id="icon-phone" viewBox="0 0 23.667 23.636">
    
    <path class="a" d="M19.299 19.633l-2.111-3.657a1.557 1.557 0 0 0-2.131-.53l-1.838 1.061-.247-.237a14.97 14.97 0 0 1-2.819-3.461 15.055 15.055 0 0 1-1.594-4.18c-.028-.111-.054-.222-.082-.322l1.237-.713.613-.353a1.555 1.555 0 0 0 .608-2.115L8.818 1.474A1.555 1.555 0 0 0 6.687.946l-1.031.6.016.028a4.867 4.867 0 0 0-.987 1.001 5.072 5.072 0 0 0-.62 1.118c-1.226 3.055-.557 6.329 2.309 11.293 3.959 6.86 8.432 7.624 8.626 7.655a5.046 5.046 0 0 0 1.283.02 4.85 4.85 0 0 0 1.356-.35l.013.02 1.04-.587a1.558 1.558 0 0 0 .607-2.11z"/>
</symbol><symbol id="icon-plus" viewBox="0 0 24 24">
    <path d="M19 11h-6V5c0-.6-.4-1-1-1s-1 .4-1 1v6H5c-.6 0-1 .4-1 1s.4 1 1 1h6v6c0 .6.4 1 1 1s1-.4 1-1v-6h6c.6 0 1-.4 1-1s-.4-1-1-1z"/>
</symbol><symbol id="icon-select-chevron" viewBox="0 0 10.252 10.252">
    
    <path class="a" d="M5.126 8.838L1.414 5.125l7.424.001z"/>
</symbol><symbol id="icon-twitter" viewBox="0 0 25.85 20.286">
    
    <g id="_001-twitter" data-name="001-twitter" transform="translate(0 -36.709)">
        <path id="Path_102" data-name="Path 102" class="cls-1" d="M8.744 56.995a13.991 13.991 0 0 1-7.182-2.007L0 54.053l1.821.031c.059 0 .154.008.3.008A10.947 10.947 0 0 0 7.288 52.7 5.578 5.578 0 0 1 3.6 49.159l-.287-.853.781.2a5.539 5.539 0 0 1-2.161-4.089l-.043-.789.724.316a4.307 4.307 0 0 0 .4.153 5.518 5.518 0 0 1-.353-6.027l.357-.651.454.588a12.282 12.282 0 0 0 8.928 4.77 8.157 8.157 0 0 1-.037-.483 5.263 5.263 0 0 1 5.314-5.314 5.324 5.324 0 0 1 3.731 1.531 10.3 10.3 0 0 0 2.609-1.094l1.15-.708-.434 1.279a5.3 5.3 0 0 1-.933 1.67c.222-.073.44-.156.665-.254l1.382-.675-.581 1.247A5.331 5.331 0 0 1 23 42.4a14.15 14.15 0 0 1-3.706 10.007 13.8 13.8 0 0 1-10.461 4.587zm-5.119-2.041a12.923 12.923 0 0 0 5.119 1.066h.083a12.853 12.853 0 0 0 9.742-4.265A13.053 13.053 0 0 0 22 42.159l-.033-.343.312-.145a4.352 4.352 0 0 0 1.309-.939 10.854 10.854 0 0 1-1.371.245l-.374.045-.291-.738.339-.261a4.372 4.372 0 0 0 1.223-1.065 8.758 8.758 0 0 1-1.779.563l-.267.05-.183-.2a4.348 4.348 0 0 0-3.207-1.417 4.3 4.3 0 0 0-4.34 4.34c0 .129.064.716.087.867l.221.629-.7-.015a13.244 13.244 0 0 1-9.738-4.56 4.689 4.689 0 0 0 1.442 5.213l1.142.9-1.451-.028a5.518 5.518 0 0 1-1.33-.185A4.568 4.568 0 0 0 6.5 48.573l1.921.413-1.892.532a4.132 4.132 0 0 1-1.112.139c-.191 0-.374-.01-.542-.026a4.594 4.594 0 0 0 3.745 2.316l1.369.067-1.1.812a11.638 11.638 0 0 1-5.264 2.128z"/>
    </g>
</symbol></svg>